<?xml version="1.0" encoding="UTF-8"?>
<svg 
    xmlns="http://www.w3.org/2000/svg"
    width="32"
    height="32"
    viewBox="0 0 32 32"
    fill="#F0BB78"
>
    <path d="M25 0H11a4 4 0 0 0-3.875 3h14.25A4.625 4.625 0 0 1 26 7.625v19.056l1.375 1.1a1 1 0 0 0 1.209.031A1.026 1.026 0 0 0 29 27V4a4 4 0 0 0-4-4z"/>
    <path d="M20 5H7a4 4 0 0 0-4 4v21.976a1.023 1.023 0 0 0 .413.837 1 1 0 0 0 1.232-.044L13.5 24.308l8.856 7.458a1 1 0 0 0 1.225.049 1.025 1.025 0 0 0 .419-.84V9a4 4 0 0 0-4-4z"/>
</svg>